<mxfile host="app.diagrams.net" modified="2024-06-20T11:31:57.065Z" agent="Mozilla/5.0 (Windows NT 10.0; Win64; x64; rv:127.0) Gecko/20100101 Firefox/127.0" etag="uXCYUsyfwzznFXEPN-Cd" version="24.5.5" type="github">
  <diagram name="Page-1" id="eyOwjPTYfIk5oQENMXa8">
    <mxGraphModel dx="1434" dy="774" grid="1" gridSize="10" guides="1" tooltips="1" connect="1" arrows="1" fold="1" page="1" pageScale="1" pageWidth="850" pageHeight="1100" math="0" shadow="0">
      <root>
        <mxCell id="0" />
        <mxCell id="1" parent="0" />
        <mxCell id="_ciTwonouaX-jGCan-6w-4" value="" style="whiteSpace=wrap;html=1;fillColor=#d0cee2;strokeColor=#56517e;" vertex="1" parent="1">
          <mxGeometry width="620" height="330" as="geometry" />
        </mxCell>
        <mxCell id="_ciTwonouaX-jGCan-6w-5" value="" style="whiteSpace=wrap;html=1;fillColor=#d0cee2;strokeColor=#56517e;" vertex="1" parent="1">
          <mxGeometry y="330" width="620" height="330" as="geometry" />
        </mxCell>
        <mxCell id="_ciTwonouaX-jGCan-6w-6" value="" style="whiteSpace=wrap;html=1;fillColor=#d0cee2;strokeColor=#56517e;" vertex="1" parent="1">
          <mxGeometry y="660" width="620" height="330" as="geometry" />
        </mxCell>
        <mxCell id="_ciTwonouaX-jGCan-6w-7" value="" style="whiteSpace=wrap;html=1;" vertex="1" parent="1">
          <mxGeometry x="110" y="40" width="180" height="80" as="geometry" />
        </mxCell>
        <mxCell id="_ciTwonouaX-jGCan-6w-8" value="" style="rhombus;whiteSpace=wrap;html=1;" vertex="1" parent="1">
          <mxGeometry x="130" y="140" width="120" height="120" as="geometry" />
        </mxCell>
        <mxCell id="_ciTwonouaX-jGCan-6w-10" value="&lt;font style=&quot;font-size: 25px;&quot;&gt;Login&lt;/font&gt;" style="text;strokeColor=none;align=center;fillColor=none;html=1;verticalAlign=middle;whiteSpace=wrap;rounded=0;" vertex="1" parent="1">
          <mxGeometry x="630" y="80" width="210" height="80" as="geometry" />
        </mxCell>
        <mxCell id="_ciTwonouaX-jGCan-6w-11" value="&lt;font style=&quot;font-size: 25px;&quot;&gt;Signup&lt;/font&gt;" style="text;strokeColor=none;align=center;fillColor=none;html=1;verticalAlign=middle;whiteSpace=wrap;rounded=0;" vertex="1" parent="1">
          <mxGeometry x="630" y="420" width="210" height="80" as="geometry" />
        </mxCell>
        <mxCell id="_ciTwonouaX-jGCan-6w-12" value="&lt;div&gt;&lt;font style=&quot;font-size: 25px;&quot;&gt;Simulator&lt;/font&gt;&lt;/div&gt;&lt;div&gt;&lt;font style=&quot;font-size: 25px;&quot;&gt;(2 pages)&lt;br&gt;&lt;/font&gt;&lt;/div&gt;" style="text;strokeColor=none;align=center;fillColor=none;html=1;verticalAlign=middle;whiteSpace=wrap;rounded=0;" vertex="1" parent="1">
          <mxGeometry x="630" y="945" width="210" height="80" as="geometry" />
        </mxCell>
        <mxCell id="_ciTwonouaX-jGCan-6w-13" value="&lt;div&gt;Type-Trader Investments&lt;/div&gt;&lt;div&gt;A stock trading simulator&lt;br&gt;&lt;/div&gt;" style="text;strokeColor=none;align=center;fillColor=none;html=1;verticalAlign=middle;whiteSpace=wrap;rounded=0;" vertex="1" parent="1">
          <mxGeometry x="85" y="40" width="210" height="80" as="geometry" />
        </mxCell>
        <mxCell id="_ciTwonouaX-jGCan-6w-14" value="image logo" style="text;strokeColor=none;align=center;fillColor=none;html=1;verticalAlign=middle;whiteSpace=wrap;rounded=0;" vertex="1" parent="1">
          <mxGeometry x="162.5" y="185" width="55" height="30" as="geometry" />
        </mxCell>
        <mxCell id="_ciTwonouaX-jGCan-6w-15" value="" style="whiteSpace=wrap;html=1;" vertex="1" parent="1">
          <mxGeometry x="350" y="20" width="220" height="290" as="geometry" />
        </mxCell>
        <mxCell id="_ciTwonouaX-jGCan-6w-17" value="" style="whiteSpace=wrap;html=1;" vertex="1" parent="1">
          <mxGeometry x="375" y="70" width="170" height="40" as="geometry" />
        </mxCell>
        <mxCell id="_ciTwonouaX-jGCan-6w-19" value="" style="whiteSpace=wrap;html=1;" vertex="1" parent="1">
          <mxGeometry x="375" y="130" width="170" height="40" as="geometry" />
        </mxCell>
        <mxCell id="_ciTwonouaX-jGCan-6w-20" value="" style="whiteSpace=wrap;html=1;" vertex="1" parent="1">
          <mxGeometry x="420" y="190" width="70" height="40" as="geometry" />
        </mxCell>
        <mxCell id="_ciTwonouaX-jGCan-6w-22" value="Login" style="text;strokeColor=none;align=center;fillColor=none;html=1;verticalAlign=middle;whiteSpace=wrap;rounded=0;" vertex="1" parent="1">
          <mxGeometry x="375" y="30" width="60" height="30" as="geometry" />
        </mxCell>
        <mxCell id="_ciTwonouaX-jGCan-6w-23" value="Username" style="text;strokeColor=none;align=center;fillColor=none;html=1;verticalAlign=middle;whiteSpace=wrap;rounded=0;" vertex="1" parent="1">
          <mxGeometry x="390" y="75" width="60" height="30" as="geometry" />
        </mxCell>
        <mxCell id="_ciTwonouaX-jGCan-6w-24" value="Password" style="text;strokeColor=none;align=center;fillColor=none;html=1;verticalAlign=middle;whiteSpace=wrap;rounded=0;" vertex="1" parent="1">
          <mxGeometry x="390" y="135" width="60" height="30" as="geometry" />
        </mxCell>
        <mxCell id="_ciTwonouaX-jGCan-6w-25" value="Submit" style="text;strokeColor=none;align=center;fillColor=none;html=1;verticalAlign=middle;whiteSpace=wrap;rounded=0;" vertex="1" parent="1">
          <mxGeometry x="425" y="195" width="60" height="30" as="geometry" />
        </mxCell>
        <mxCell id="_ciTwonouaX-jGCan-6w-26" value="&lt;u&gt;Signup&lt;/u&gt;" style="text;strokeColor=none;align=center;fillColor=none;html=1;verticalAlign=middle;whiteSpace=wrap;rounded=0;" vertex="1" parent="1">
          <mxGeometry x="430" y="250" width="60" height="30" as="geometry" />
        </mxCell>
        <mxCell id="_ciTwonouaX-jGCan-6w-28" value="quill print backdrop" style="text;strokeColor=none;align=center;fillColor=none;html=1;verticalAlign=middle;whiteSpace=wrap;rounded=0;" vertex="1" parent="1">
          <mxGeometry x="40" y="160" width="60" height="30" as="geometry" />
        </mxCell>
        <mxCell id="_ciTwonouaX-jGCan-6w-29" value="" style="whiteSpace=wrap;html=1;" vertex="1" parent="1">
          <mxGeometry x="200" y="350" width="220" height="290" as="geometry" />
        </mxCell>
        <mxCell id="_ciTwonouaX-jGCan-6w-30" value="" style="whiteSpace=wrap;html=1;" vertex="1" parent="1">
          <mxGeometry x="225" y="400" width="170" height="30" as="geometry" />
        </mxCell>
        <mxCell id="_ciTwonouaX-jGCan-6w-32" value="Signup" style="text;strokeColor=none;align=center;fillColor=none;html=1;verticalAlign=middle;whiteSpace=wrap;rounded=0;" vertex="1" parent="1">
          <mxGeometry x="275" y="360" width="60" height="30" as="geometry" />
        </mxCell>
        <mxCell id="_ciTwonouaX-jGCan-6w-35" value="" style="whiteSpace=wrap;html=1;" vertex="1" parent="1">
          <mxGeometry x="275" y="520" width="55" height="40" as="geometry" />
        </mxCell>
        <mxCell id="_ciTwonouaX-jGCan-6w-33" value="Submit" style="text;strokeColor=none;align=center;fillColor=none;html=1;verticalAlign=middle;whiteSpace=wrap;rounded=0;" vertex="1" parent="1">
          <mxGeometry x="275" y="525" width="60" height="30" as="geometry" />
        </mxCell>
        <mxCell id="_ciTwonouaX-jGCan-6w-34" value="&lt;u&gt;Login&lt;/u&gt;" style="text;strokeColor=none;align=center;fillColor=none;html=1;verticalAlign=middle;whiteSpace=wrap;rounded=0;" vertex="1" parent="1">
          <mxGeometry x="280" y="580" width="60" height="30" as="geometry" />
        </mxCell>
        <mxCell id="_ciTwonouaX-jGCan-6w-36" value="" style="whiteSpace=wrap;html=1;" vertex="1" parent="1">
          <mxGeometry x="225" y="480" width="170" height="30" as="geometry" />
        </mxCell>
        <mxCell id="_ciTwonouaX-jGCan-6w-37" value="" style="whiteSpace=wrap;html=1;" vertex="1" parent="1">
          <mxGeometry x="225" y="440" width="170" height="30" as="geometry" />
        </mxCell>
        <mxCell id="_ciTwonouaX-jGCan-6w-38" value="Create Username" style="text;strokeColor=none;align=center;fillColor=none;html=1;verticalAlign=middle;whiteSpace=wrap;rounded=0;" vertex="1" parent="1">
          <mxGeometry x="250" y="400" width="105" height="30" as="geometry" />
        </mxCell>
        <mxCell id="_ciTwonouaX-jGCan-6w-39" value="Create Password" style="text;strokeColor=none;align=center;fillColor=none;html=1;verticalAlign=middle;whiteSpace=wrap;rounded=0;" vertex="1" parent="1">
          <mxGeometry x="257.5" y="440" width="105" height="30" as="geometry" />
        </mxCell>
        <mxCell id="_ciTwonouaX-jGCan-6w-41" value="Re-Type Password" style="text;strokeColor=none;align=center;fillColor=none;html=1;verticalAlign=middle;whiteSpace=wrap;rounded=0;" vertex="1" parent="1">
          <mxGeometry x="248.75" y="480" width="122.5" height="30" as="geometry" />
        </mxCell>
        <mxCell id="_ciTwonouaX-jGCan-6w-42" value="" style="whiteSpace=wrap;html=1;fillColor=#d0cee2;strokeColor=#56517e;" vertex="1" parent="1">
          <mxGeometry y="990" width="620" height="330" as="geometry" />
        </mxCell>
        <mxCell id="_ciTwonouaX-jGCan-6w-43" value="1" style="text;strokeColor=none;align=center;fillColor=none;html=1;verticalAlign=middle;whiteSpace=wrap;rounded=0;" vertex="1" parent="1">
          <mxGeometry x="25" y="680" width="60" height="30" as="geometry" />
        </mxCell>
        <mxCell id="_ciTwonouaX-jGCan-6w-44" value="2" style="text;strokeColor=none;align=center;fillColor=none;html=1;verticalAlign=middle;whiteSpace=wrap;rounded=0;" vertex="1" parent="1">
          <mxGeometry x="20" y="1010" width="60" height="30" as="geometry" />
        </mxCell>
        <mxCell id="_ciTwonouaX-jGCan-6w-45" value="" style="whiteSpace=wrap;html=1;" vertex="1" parent="1">
          <mxGeometry x="80" y="690" width="450" height="30" as="geometry" />
        </mxCell>
        <mxCell id="_ciTwonouaX-jGCan-6w-47" value="" style="whiteSpace=wrap;html=1;" vertex="1" parent="1">
          <mxGeometry x="160" y="810" width="150" height="100" as="geometry" />
        </mxCell>
        <mxCell id="_ciTwonouaX-jGCan-6w-48" value="" style="whiteSpace=wrap;html=1;" vertex="1" parent="1">
          <mxGeometry x="80" y="740" width="60" height="230" as="geometry" />
        </mxCell>
        <mxCell id="_ciTwonouaX-jGCan-6w-46" value="&lt;div&gt;(Nav)&lt;/div&gt;&lt;div&gt;&lt;br&gt;&lt;/div&gt;&lt;div&gt;Greeting,&lt;/div&gt;&lt;div&gt;User&lt;/div&gt;&lt;div&gt;&lt;br&gt;&lt;/div&gt;&lt;div&gt;Home&lt;/div&gt;&lt;div&gt;&lt;br&gt;&lt;/div&gt;&lt;div&gt;Portfolio&lt;/div&gt;&lt;div&gt;&lt;br&gt;&lt;/div&gt;&lt;div&gt;Logout&lt;br&gt;&lt;/div&gt;" style="text;strokeColor=none;align=center;fillColor=none;html=1;verticalAlign=middle;whiteSpace=wrap;rounded=0;" vertex="1" parent="1">
          <mxGeometry x="57.5" y="780" width="105" height="30" as="geometry" />
        </mxCell>
        <mxCell id="_ciTwonouaX-jGCan-6w-49" value="" style="whiteSpace=wrap;html=1;" vertex="1" parent="1">
          <mxGeometry x="160" y="740" width="150" height="20" as="geometry" />
        </mxCell>
        <mxCell id="_ciTwonouaX-jGCan-6w-50" value="" style="whiteSpace=wrap;html=1;" vertex="1" parent="1">
          <mxGeometry x="160" y="780" width="50" height="20" as="geometry" />
        </mxCell>
        <mxCell id="_ciTwonouaX-jGCan-6w-51" value="" style="whiteSpace=wrap;html=1;" vertex="1" parent="1">
          <mxGeometry x="160" y="940" width="97.5" height="20" as="geometry" />
        </mxCell>
        <mxCell id="_ciTwonouaX-jGCan-6w-52" value="" style="whiteSpace=wrap;html=1;" vertex="1" parent="1">
          <mxGeometry x="265" y="940" width="35" height="20" as="geometry" />
        </mxCell>
        <mxCell id="_ciTwonouaX-jGCan-6w-53" value="" style="whiteSpace=wrap;html=1;" vertex="1" parent="1">
          <mxGeometry x="350" y="780" width="180" height="20" as="geometry" />
        </mxCell>
        <mxCell id="_ciTwonouaX-jGCan-6w-54" value="" style="whiteSpace=wrap;html=1;" vertex="1" parent="1">
          <mxGeometry x="350" y="820" width="180" height="125" as="geometry" />
        </mxCell>
        <mxCell id="_ciTwonouaX-jGCan-6w-55" value="" style="whiteSpace=wrap;html=1;" vertex="1" parent="1">
          <mxGeometry x="350" y="740" width="180" height="20" as="geometry" />
        </mxCell>
        <mxCell id="_ciTwonouaX-jGCan-6w-56" value="&lt;div align=&quot;left&quot;&gt;Header - Type-Trader Investments&lt;/div&gt;&lt;div align=&quot;left&quot;&gt;A stock trading simulator&lt;br&gt;&lt;/div&gt;" style="text;strokeColor=none;align=left;fillColor=none;html=1;verticalAlign=middle;whiteSpace=wrap;rounded=0;" vertex="1" parent="1">
          <mxGeometry x="90" y="690" width="210" height="30" as="geometry" />
        </mxCell>
        <mxCell id="_ciTwonouaX-jGCan-6w-59" value="Share selector" style="text;strokeColor=none;align=center;fillColor=none;html=1;verticalAlign=middle;whiteSpace=wrap;rounded=0;" vertex="1" parent="1">
          <mxGeometry x="133.75" y="735" width="150" height="30" as="geometry" />
        </mxCell>
        <mxCell id="_ciTwonouaX-jGCan-6w-61" value="" style="edgeStyle=orthogonalEdgeStyle;rounded=0;orthogonalLoop=1;jettySize=auto;html=1;" edge="1" parent="1" source="_ciTwonouaX-jGCan-6w-60" target="_ciTwonouaX-jGCan-6w-47">
          <mxGeometry relative="1" as="geometry" />
        </mxCell>
        <mxCell id="_ciTwonouaX-jGCan-6w-60" value="submit" style="text;strokeColor=none;align=center;fillColor=none;html=1;verticalAlign=middle;whiteSpace=wrap;rounded=0;" vertex="1" parent="1">
          <mxGeometry x="171.88" y="775" width="26.25" height="30" as="geometry" />
        </mxCell>
        <mxCell id="_ciTwonouaX-jGCan-6w-64" value="" style="edgeStyle=orthogonalEdgeStyle;rounded=0;orthogonalLoop=1;jettySize=auto;html=1;" edge="1" parent="1" source="_ciTwonouaX-jGCan-6w-62" target="_ciTwonouaX-jGCan-6w-63">
          <mxGeometry relative="1" as="geometry" />
        </mxCell>
        <mxCell id="_ciTwonouaX-jGCan-6w-62" value="Generates Stock Graph and " style="text;strokeColor=none;align=center;fillColor=none;html=1;verticalAlign=middle;whiteSpace=wrap;rounded=0;" vertex="1" parent="1">
          <mxGeometry x="200" y="845" width="60" height="30" as="geometry" />
        </mxCell>
        <mxCell id="_ciTwonouaX-jGCan-6w-63" value="Share price ($)" style="text;strokeColor=none;align=center;fillColor=none;html=1;verticalAlign=middle;whiteSpace=wrap;rounded=0;" vertex="1" parent="1">
          <mxGeometry x="146.25" y="910" width="107.5" height="30" as="geometry" />
        </mxCell>
        <mxCell id="_ciTwonouaX-jGCan-6w-65" value="Amount&amp;nbsp; selector" style="text;strokeColor=none;align=center;fillColor=none;html=1;verticalAlign=middle;whiteSpace=wrap;rounded=0;" vertex="1" parent="1">
          <mxGeometry x="157.5" y="935" width="102.5" height="30" as="geometry" />
        </mxCell>
        <mxCell id="_ciTwonouaX-jGCan-6w-67" value="" style="edgeStyle=orthogonalEdgeStyle;rounded=0;orthogonalLoop=1;jettySize=auto;html=1;" edge="1" parent="1" source="_ciTwonouaX-jGCan-6w-66" target="_ciTwonouaX-jGCan-6w-54">
          <mxGeometry relative="1" as="geometry" />
        </mxCell>
        <mxCell id="_ciTwonouaX-jGCan-6w-66" value="&quot;buy&quot;" style="text;strokeColor=none;align=center;fillColor=none;html=1;verticalAlign=middle;whiteSpace=wrap;rounded=0;" vertex="1" parent="1">
          <mxGeometry x="250" y="935" width="60" height="30" as="geometry" />
        </mxCell>
        <mxCell id="_ciTwonouaX-jGCan-6w-68" value="supposed to display share in &quot;portfolio&quot;" style="text;strokeColor=none;align=center;fillColor=none;html=1;verticalAlign=middle;whiteSpace=wrap;rounded=0;" vertex="1" parent="1">
          <mxGeometry x="315" y="950" width="185" height="30" as="geometry" />
        </mxCell>
        <mxCell id="_ciTwonouaX-jGCan-6w-70" value="portfolio" style="text;strokeColor=none;align=center;fillColor=none;html=1;verticalAlign=middle;whiteSpace=wrap;rounded=0;" vertex="1" parent="1">
          <mxGeometry x="350" y="735" width="60" height="30" as="geometry" />
        </mxCell>
        <mxCell id="_ciTwonouaX-jGCan-6w-72" value="balance" style="text;strokeColor=none;align=center;fillColor=none;html=1;verticalAlign=middle;whiteSpace=wrap;rounded=0;" vertex="1" parent="1">
          <mxGeometry x="350" y="775" width="60" height="30" as="geometry" />
        </mxCell>
        <mxCell id="_ciTwonouaX-jGCan-6w-73" value="Since page 1 doesn&#39;t work completely, plans were made to create second page for an easier url pathway" style="text;strokeColor=none;align=center;fillColor=none;html=1;verticalAlign=middle;whiteSpace=wrap;rounded=0;" vertex="1" parent="1">
          <mxGeometry x="247.5" y="1040" width="225" height="30" as="geometry" />
        </mxCell>
        <mxCell id="_ciTwonouaX-jGCan-6w-74" value="" style="whiteSpace=wrap;html=1;" vertex="1" parent="1">
          <mxGeometry x="220" y="1125" width="180" height="20" as="geometry" />
        </mxCell>
        <mxCell id="_ciTwonouaX-jGCan-6w-75" value="" style="whiteSpace=wrap;html=1;" vertex="1" parent="1">
          <mxGeometry x="220" y="1165" width="180" height="125" as="geometry" />
        </mxCell>
        <mxCell id="_ciTwonouaX-jGCan-6w-76" value="" style="whiteSpace=wrap;html=1;" vertex="1" parent="1">
          <mxGeometry x="220" y="1085" width="180" height="20" as="geometry" />
        </mxCell>
        <mxCell id="_ciTwonouaX-jGCan-6w-78" value="portfolio" style="text;strokeColor=none;align=center;fillColor=none;html=1;verticalAlign=middle;whiteSpace=wrap;rounded=0;" vertex="1" parent="1">
          <mxGeometry x="220" y="1080" width="60" height="30" as="geometry" />
        </mxCell>
        <mxCell id="_ciTwonouaX-jGCan-6w-79" value="balance" style="text;strokeColor=none;align=center;fillColor=none;html=1;verticalAlign=middle;whiteSpace=wrap;rounded=0;" vertex="1" parent="1">
          <mxGeometry x="220" y="1120" width="60" height="30" as="geometry" />
        </mxCell>
        <mxCell id="_ciTwonouaX-jGCan-6w-81" value="" style="whiteSpace=wrap;html=1;" vertex="1" parent="1">
          <mxGeometry x="490" y="820" width="40" height="20" as="geometry" />
        </mxCell>
        <mxCell id="_ciTwonouaX-jGCan-6w-82" value="" style="whiteSpace=wrap;html=1;" vertex="1" parent="1">
          <mxGeometry x="490" y="780" width="40" height="20" as="geometry" />
        </mxCell>
        <mxCell id="_ciTwonouaX-jGCan-6w-83" value="" style="whiteSpace=wrap;html=1;" vertex="1" parent="1">
          <mxGeometry x="360" y="1125" width="40" height="20" as="geometry" />
        </mxCell>
        <mxCell id="_ciTwonouaX-jGCan-6w-84" value="" style="whiteSpace=wrap;html=1;" vertex="1" parent="1">
          <mxGeometry x="360" y="1165" width="40" height="20" as="geometry" />
        </mxCell>
        <mxCell id="_ciTwonouaX-jGCan-6w-85" value="reset" style="text;strokeColor=none;align=center;fillColor=none;html=1;verticalAlign=middle;whiteSpace=wrap;rounded=0;" vertex="1" parent="1">
          <mxGeometry x="480" y="775" width="60" height="30" as="geometry" />
        </mxCell>
        <mxCell id="_ciTwonouaX-jGCan-6w-86" value="reset" style="text;strokeColor=none;align=center;fillColor=none;html=1;verticalAlign=middle;whiteSpace=wrap;rounded=0;" vertex="1" parent="1">
          <mxGeometry x="350" y="1120" width="60" height="30" as="geometry" />
        </mxCell>
        <mxCell id="_ciTwonouaX-jGCan-6w-87" value="&quot;sell&quot;" style="text;strokeColor=none;align=center;fillColor=none;html=1;verticalAlign=middle;whiteSpace=wrap;rounded=0;" vertex="1" parent="1">
          <mxGeometry x="350" y="1160" width="60" height="30" as="geometry" />
        </mxCell>
        <mxCell id="_ciTwonouaX-jGCan-6w-88" value="&quot;sell&quot;" style="text;strokeColor=none;align=center;fillColor=none;html=1;verticalAlign=middle;whiteSpace=wrap;rounded=0;" vertex="1" parent="1">
          <mxGeometry x="480" y="815" width="60" height="30" as="geometry" />
        </mxCell>
        <mxCell id="_ciTwonouaX-jGCan-6w-89" value="" style="whiteSpace=wrap;html=1;" vertex="1" parent="1">
          <mxGeometry x="220" y="1165" width="140" height="20" as="geometry" />
        </mxCell>
        <mxCell id="_ciTwonouaX-jGCan-6w-90" value="" style="whiteSpace=wrap;html=1;" vertex="1" parent="1">
          <mxGeometry x="350" y="820" width="140" height="20" as="geometry" />
        </mxCell>
        <mxCell id="_ciTwonouaX-jGCan-6w-69" value="share posted" style="text;strokeColor=none;align=center;fillColor=none;html=1;verticalAlign=middle;whiteSpace=wrap;rounded=0;" vertex="1" parent="1">
          <mxGeometry x="342.5" y="815" width="130" height="30" as="geometry" />
        </mxCell>
        <mxCell id="_ciTwonouaX-jGCan-6w-77" value="share posted" style="text;strokeColor=none;align=center;fillColor=none;html=1;verticalAlign=middle;whiteSpace=wrap;rounded=0;" vertex="1" parent="1">
          <mxGeometry x="210" y="1160" width="120" height="30" as="geometry" />
        </mxCell>
        <mxCell id="_ciTwonouaX-jGCan-6w-92" value="" style="whiteSpace=wrap;html=1;" vertex="1" parent="1">
          <mxGeometry x="80" y="1050" width="60" height="230" as="geometry" />
        </mxCell>
        <mxCell id="_ciTwonouaX-jGCan-6w-93" value="&lt;div&gt;(Nav)&lt;/div&gt;&lt;div&gt;&lt;br&gt;&lt;/div&gt;&lt;div&gt;Greeting,&lt;/div&gt;&lt;div&gt;User&lt;/div&gt;&lt;div&gt;&lt;br&gt;&lt;/div&gt;&lt;div&gt;Home&lt;/div&gt;&lt;div&gt;&lt;br&gt;&lt;/div&gt;&lt;div&gt;Portfolio&lt;/div&gt;&lt;div&gt;&lt;br&gt;&lt;/div&gt;&lt;div&gt;Logout&lt;br&gt;&lt;/div&gt;" style="text;strokeColor=none;align=center;fillColor=none;html=1;verticalAlign=middle;whiteSpace=wrap;rounded=0;" vertex="1" parent="1">
          <mxGeometry x="57.5" y="1090" width="105" height="30" as="geometry" />
        </mxCell>
        <mxCell id="_ciTwonouaX-jGCan-6w-94" value="" style="whiteSpace=wrap;html=1;" vertex="1" parent="1">
          <mxGeometry x="80" y="1000" width="450" height="30" as="geometry" />
        </mxCell>
        <mxCell id="_ciTwonouaX-jGCan-6w-95" value="&lt;div align=&quot;left&quot;&gt;Header - Type-Trader Investments&lt;/div&gt;&lt;div align=&quot;left&quot;&gt;A stock trading simulator&lt;br&gt;&lt;/div&gt;" style="text;strokeColor=none;align=left;fillColor=none;html=1;verticalAlign=middle;whiteSpace=wrap;rounded=0;" vertex="1" parent="1">
          <mxGeometry x="90" y="1000" width="210" height="30" as="geometry" />
        </mxCell>
        <mxCell id="_ciTwonouaX-jGCan-6w-91" value="" style="edgeStyle=orthogonalEdgeStyle;rounded=0;orthogonalLoop=1;jettySize=auto;html=1;" edge="1" parent="1" source="_ciTwonouaX-jGCan-6w-66" target="_ciTwonouaX-jGCan-6w-78">
          <mxGeometry relative="1" as="geometry" />
        </mxCell>
        <mxCell id="_ciTwonouaX-jGCan-6w-97" value="&lt;font style=&quot;font-size: 25px;&quot;&gt;Contact Page&lt;/font&gt;" style="text;strokeColor=none;align=center;fillColor=none;html=1;verticalAlign=middle;whiteSpace=wrap;rounded=0;" vertex="1" parent="1">
          <mxGeometry x="610" y="1470" width="210" height="80" as="geometry" />
        </mxCell>
        <mxCell id="_ciTwonouaX-jGCan-6w-96" value="" style="whiteSpace=wrap;html=1;fillColor=#d0cee2;strokeColor=#56517e;" vertex="1" parent="1">
          <mxGeometry y="1320" width="620" height="330" as="geometry" />
        </mxCell>
        <mxCell id="_ciTwonouaX-jGCan-6w-98" value="" style="whiteSpace=wrap;html=1;" vertex="1" parent="1">
          <mxGeometry x="65" y="1360" width="450" height="30" as="geometry" />
        </mxCell>
        <mxCell id="_ciTwonouaX-jGCan-6w-110" value="" style="whiteSpace=wrap;html=1;" vertex="1" parent="1">
          <mxGeometry x="180" y="1400" width="230" height="240" as="geometry" />
        </mxCell>
        <mxCell id="_ciTwonouaX-jGCan-6w-99" value="&lt;div align=&quot;left&quot;&gt;Header - Type-Trader Investments&lt;/div&gt;&lt;div align=&quot;left&quot;&gt;A stock trading simulator&lt;br&gt;&lt;/div&gt;" style="text;strokeColor=none;align=left;fillColor=none;html=1;verticalAlign=middle;whiteSpace=wrap;rounded=0;" vertex="1" parent="1">
          <mxGeometry x="75" y="1360" width="210" height="30" as="geometry" />
        </mxCell>
        <mxCell id="_ciTwonouaX-jGCan-6w-100" value="" style="whiteSpace=wrap;html=1;" vertex="1" parent="1">
          <mxGeometry x="62.5" y="1410" width="60" height="230" as="geometry" />
        </mxCell>
        <mxCell id="_ciTwonouaX-jGCan-6w-101" value="&lt;div&gt;(Nav)&lt;/div&gt;&lt;div&gt;&lt;br&gt;&lt;/div&gt;&lt;div&gt;Greeting,&lt;/div&gt;&lt;div&gt;User&lt;/div&gt;&lt;div&gt;&lt;br&gt;&lt;/div&gt;&lt;div&gt;Home&lt;/div&gt;&lt;div&gt;&lt;br&gt;&lt;/div&gt;&lt;div&gt;Portfolio&lt;/div&gt;&lt;div&gt;&lt;br&gt;&lt;/div&gt;&lt;div&gt;Logout&lt;br&gt;&lt;/div&gt;" style="text;strokeColor=none;align=center;fillColor=none;html=1;verticalAlign=middle;whiteSpace=wrap;rounded=0;" vertex="1" parent="1">
          <mxGeometry x="40" y="1450" width="105" height="30" as="geometry" />
        </mxCell>
        <mxCell id="_ciTwonouaX-jGCan-6w-103" value="" style="whiteSpace=wrap;html=1;" vertex="1" parent="1">
          <mxGeometry x="215" y="1530" width="170" height="30" as="geometry" />
        </mxCell>
        <mxCell id="_ciTwonouaX-jGCan-6w-104" value="message" style="text;strokeColor=none;align=center;fillColor=none;html=1;verticalAlign=middle;whiteSpace=wrap;rounded=0;" vertex="1" parent="1">
          <mxGeometry x="238.75" y="1530" width="122.5" height="30" as="geometry" />
        </mxCell>
        <mxCell id="_ciTwonouaX-jGCan-6w-105" value="" style="whiteSpace=wrap;html=1;" vertex="1" parent="1">
          <mxGeometry x="215" y="1490" width="170" height="30" as="geometry" />
        </mxCell>
        <mxCell id="_ciTwonouaX-jGCan-6w-106" value="email" style="text;strokeColor=none;align=center;fillColor=none;html=1;verticalAlign=middle;whiteSpace=wrap;rounded=0;" vertex="1" parent="1">
          <mxGeometry x="247.5" y="1490" width="105" height="30" as="geometry" />
        </mxCell>
        <mxCell id="_ciTwonouaX-jGCan-6w-107" value="" style="whiteSpace=wrap;html=1;" vertex="1" parent="1">
          <mxGeometry x="215" y="1450" width="170" height="30" as="geometry" />
        </mxCell>
        <mxCell id="_ciTwonouaX-jGCan-6w-108" value="name" style="text;strokeColor=none;align=center;fillColor=none;html=1;verticalAlign=middle;whiteSpace=wrap;rounded=0;" vertex="1" parent="1">
          <mxGeometry x="240" y="1450" width="105" height="30" as="geometry" />
        </mxCell>
        <mxCell id="_ciTwonouaX-jGCan-6w-109" value="&lt;div&gt;Questions?Comments?&amp;nbsp;&lt;/div&gt;&lt;div&gt;Feel free to contact us!&lt;/div&gt;" style="text;strokeColor=none;align=center;fillColor=none;html=1;verticalAlign=middle;whiteSpace=wrap;rounded=0;" vertex="1" parent="1">
          <mxGeometry x="200" y="1410" width="205" height="30" as="geometry" />
        </mxCell>
        <mxCell id="_ciTwonouaX-jGCan-6w-112" value="" style="whiteSpace=wrap;html=1;" vertex="1" parent="1">
          <mxGeometry x="270" y="1570" width="55" height="40" as="geometry" />
        </mxCell>
        <mxCell id="_ciTwonouaX-jGCan-6w-111" value="Submit" style="text;strokeColor=none;align=center;fillColor=none;html=1;verticalAlign=middle;whiteSpace=wrap;rounded=0;" vertex="1" parent="1">
          <mxGeometry x="265" y="1575" width="60" height="30" as="geometry" />
        </mxCell>
      </root>
    </mxGraphModel>
  </diagram>
</mxfile>
